<?xml version="1.0" ?><svg id="Layer_1" style="enable-background:new 0 0 68 68;" version="1.1" viewBox="0 0 68 68" xml:space="preserve" xmlns="http://www.w3.org/2000/svg" xmlns:xlink="http://www.w3.org/1999/xlink"><g><path d="M34,53.4c7,0,12.7-5.7,12.7-12.7S41,28,34,28s-12.7,5.7-12.7,12.7S27,53.4,34,53.4z M34,30c5.4,0,9.8,4,10.6,9.1   c-1.2,1-5.3,3.6-10.1,0.8c-4.7-2.8-8.8-1.8-11.1-0.9C24.3,33.9,28.7,30,34,30z M33.5,41.6c3.7,2.2,7.7,1.9,11.2-0.2   c-0.4,5.6-5,10-10.7,10c-5.7,0-10.4-4.5-10.7-10.2C24.6,40.5,28.7,38.8,33.5,41.6z"/><path d="M51.7,2H16.3c-2.8,0-5,2.2-5,5c0,11.3,0,42.7,0,53.1c0,3.3,2.7,5.9,5.9,5.9h33.5c3.3,0,5.9-2.7,5.9-5.9   c0-10.8,0-40.7,0-53.1C56.7,4.2,54.5,2,51.7,2z M13.3,7c0-1.6,1.3-3,3-3h23.9v11.4H13.3V7z M54.7,60.1c0,2.2-1.8,3.9-3.9,3.9H17.2   c-2.2,0-3.9-1.8-3.9-3.9V17.4h41.4V60.1z M54.7,15.4H42.2V4h9.5c1.6,0,3,1.3,3,3V15.4z"/><path d="M20.6,6.1c-2,0-3.6,1.6-3.6,3.6c0,2,1.6,3.6,3.6,3.6c2,0,3.6-1.6,3.6-3.6C24.1,7.7,22.5,6.1,20.6,6.1z M20.6,11.3   c-0.9,0-1.6-0.7-1.6-1.6s0.7-1.6,1.6-1.6s1.6,0.7,1.6,1.6S21.4,11.3,20.6,11.3z"/><path d="M35,6.6h-6.2c-0.6,0-1,0.4-1,1v4.1c0,0.6,0.4,1,1,1H35c0.6,0,1-0.4,1-1V7.6C36,7.1,35.6,6.6,35,6.6z M34,10.8h-4.2V8.6H34   V10.8z"/><path d="M51.6,8.7h-6.2c-0.6,0-1,0.4-1,1s0.4,1,1,1h6.2c0.6,0,1-0.4,1-1S52.1,8.7,51.6,8.7z"/><path d="M27.4,42.1C27.2,42,27,42,26.8,42c-1.1,0.2-1.1,1.8,0,2C28.1,44.2,28.4,42.5,27.4,42.1z"/><path d="M29.7,46.7c0.9-1.1-0.5-2.3-1.4-1.4C27.4,46.3,28.8,47.6,29.7,46.7z"/><path d="M31.6,42.2c-0.9-0.6-2.1,0.5-1.3,1.5C31.3,44.7,32.7,43.1,31.6,42.2z"/><path d="M31.1,47.6c-0.4,1,0.9,2,1.8,0.9C33.6,47.4,31.7,46.3,31.1,47.6z"/><path d="M35.1,46.2c1-0.8,0.1-2.2-0.9-1.8C32.8,45.1,34,47,35.1,46.2z"/><path d="M37.7,48.5c0.8-0.8-0.1-2-1.1-1.6c-0.7,0.4-0.8,1.2-0.3,1.6C36.7,48.9,37.3,48.9,37.7,48.5z"/><path d="M40,47c0.5,0,1-0.4,1-1c0-0.4-0.2-0.7-0.6-0.9C39.7,44.8,39,45.3,39,46C39,46.5,39.4,47,40,47z"/></g></svg>