<svg width="40" height="58" viewBox="0 0 40 58" fill="none" xmlns="http://www.w3.org/2000/svg">
<g clip-path="url(#clip0_10008_58)">
<path d="M19.4036 17.1028L32.5849 7.87318C33.6969 7.09456 35.2551 7.39931 36.0637 8.55406C36.8723 9.70882 36.6856 11.3629 35.5736 12.1415L22.1186 21.5628" stroke="black" stroke-width="1.75" stroke-miterlimit="10"/>
<path d="M24.4064 26.2777L36.6126 17.7309C37.7245 16.9522 37.874 15.2541 37.0667 14.0921C36.2594 12.9301 34.7598 12.7181 33.6491 13.4895L22.1101 21.5692" stroke="black" stroke-width="1.75" stroke-miterlimit="10"/>
<path d="M10.0513 17.4173L27.5865 5.13908C28.6984 4.36047 30.2567 4.66522 31.0653 5.81997C31.8738 6.97472 31.6273 8.54323 30.5153 9.32185L19.404 17.1021" stroke="black" stroke-width="1.75" stroke-miterlimit="10"/>
<path d="M2.59273 23.7871C3.5874 22.1855 3.75482 20.3856 3.75482 20.3856C5.08383 14.7193 10.2745 7.22224 10.2745 7.22224C11.7413 4.98417 14.4799 7.05656 13.7886 8.80905L12.7397 11.2708L10.0514 17.4172" stroke="black" stroke-width="1.75" stroke-miterlimit="10"/>
<path d="M21.2823 33.4932C26.2462 31.152 33.6563 26.0781 33.6563 26.0781C34.7682 25.2995 35.3831 23.6835 34.5745 22.5287C33.5324 21.0404 31.8655 21.0539 30.7535 21.8325" stroke="black" stroke-width="1.75" stroke-miterlimit="10"/>
<path d="M24.4065 26.2761L23.732 26.742" stroke="black" stroke-width="1.75" stroke-miterlimit="10"/>
</g>
<g clip-path="url(#clip1_10008_58)">
<path d="M37.0002 57.458H3.04221" stroke="black" stroke-width="1.75" stroke-miterlimit="10"/>
<path d="M17.3685 50.1755C18.5419 50.1755 19.4931 49.1875 19.4931 47.9686C19.4931 46.7498 18.5419 45.7617 17.3685 45.7617C16.1951 45.7617 15.2438 46.7498 15.2438 47.9686C15.2438 49.1875 16.1951 50.1755 17.3685 50.1755Z" stroke="#9747FF" stroke-width="1.75"/>
<path d="M31.2862 35.1579C32.4596 35.1579 33.4109 34.1699 33.4109 32.951C33.4109 31.7322 32.4596 30.7441 31.2862 30.7441C30.1128 30.7441 29.1616 31.7322 29.1616 32.951C29.1616 34.1699 30.1128 35.1579 31.2862 35.1579Z" stroke="#9747FF" stroke-width="1.75"/>
<path d="M31.2863 41.4984L35.2174 37.415" stroke="#9747FF" stroke-width="1.75"/>
<path d="M25.8907 47.5582L21.5334 43.0322" stroke="#9747FF" stroke-width="1.75"/>
<path d="M3.37219 53.0188L18.5447 37.2588" stroke="black" stroke-width="1.75" stroke-miterlimit="10"/>
<path d="M20.9513 31.879L17.1586 35.8213L19.9266 38.6944L23.7193 34.7521L20.9513 31.879Z" stroke="black" stroke-width="1.75" stroke-miterlimit="10"/>
<path d="M11.0063 27.2967C11.9665 26.293 13.527 26.293 14.4873 27.2967L19.9189 32.9386" stroke="black" stroke-width="1.75" stroke-miterlimit="10"/>
<path d="M28.1231 45.0761C29.0894 44.0786 29.0894 42.4578 28.1231 41.4603L22.6915 35.8184" stroke="black" stroke-width="1.75" stroke-miterlimit="10"/>
<g filter="url(#filter0_d_10008_58)">
<path d="M35.1574 36.419C38.6263 42.4684 35.5616 50.7923 28.3144 55.0051C21.0671 59.218 12.382 57.7242 8.91306 51.6748" stroke="black" stroke-width="1.75" stroke-miterlimit="10" shape-rendering="crispEdges"/>
</g>
</g>
<defs>
<filter id="filter0_d_10008_58" x="4.15659" y="35.9795" width="37.3081" height="30.293" filterUnits="userSpaceOnUse" color-interpolation-filters="sRGB">
<feFlood flood-opacity="0" result="BackgroundImageFix"/>
<feColorMatrix in="SourceAlpha" type="matrix" values="0 0 0 0 0 0 0 0 0 0 0 0 0 0 0 0 0 0 127 0" result="hardAlpha"/>
<feOffset dy="4"/>
<feGaussianBlur stdDeviation="2"/>
<feComposite in2="hardAlpha" operator="out"/>
<feColorMatrix type="matrix" values="0 0 0 0 0 0 0 0 0 0 0 0 0 0 0 0 0 0 0.25 0"/>
<feBlend mode="normal" in2="BackgroundImageFix" result="effect1_dropShadow_10008_58"/>
<feBlend mode="normal" in="SourceGraphic" in2="effect1_dropShadow_10008_58" result="shape"/>
</filter>
<clipPath id="clip0_10008_58">
<rect width="34.3417" height="35.5896" fill="white" transform="translate(6.18005) rotate(10)"/>
</clipPath>
<clipPath id="clip1_10008_58">
<rect width="34" height="32" fill="white" transform="translate(3 26)"/>
</clipPath>
</defs>
</svg>
