<?xml version="1.0" encoding="UTF-8"?>
<svg width="1200pt" height="1200pt" version="1.1" viewBox="0 0 1200 1200" xmlns="http://www.w3.org/2000/svg">
 <path d="m851.29 38.625h-502.6c-31.688 0-57.375 25.688-57.375 57.375v948.71c0 31.688 25.688 57.375 57.375 57.375h13.781v24.703c0 18.938 15.469 34.453 34.453 34.453h31.547c18.938 0 34.453-15.469 34.453-34.453v-24.703h274.22v24.703c0 18.938 15.469 34.453 34.453 34.453h31.547c18.938 0 34.453-15.469 34.453-34.453v-24.703h13.781c31.688 0 57.375-25.688 57.375-57.375v-948.71c-0.14062-31.547-25.922-57.375-57.469-57.375zm-502.6 22.922h502.45c18.938 0 34.453 15.469 34.453 34.453v320.76h-571.31v-320.76c0-18.938 15.469-34.453 34.406-34.453zm91.359 1065.4c0 6.375-5.1562 11.531-11.531 11.531h-31.547c-6.375 0-11.531-5.1562-11.531-11.531v-24.703h54.609zm374.48 0c0 6.375-5.1562 11.531-11.531 11.531h-31.547c-6.375 0-11.531-5.1562-11.531-11.531v-24.703h54.609zm36.75-47.625h-502.6c-18.938 0-34.453-15.469-34.453-34.453l0.046875-605.16h571.45v605.16c-0.046875 18.938-15.516 34.453-34.453 34.453zm-453.74-554.29c-20.625 0-37.453 16.781-37.453 37.453v109.55c0 20.625 16.781 37.453 37.453 37.453 20.625 0 37.453-16.781 37.453-37.453v-109.55c0-20.672-16.781-37.453-37.453-37.453zm14.531 147.14c0 8.0625-6.4688 14.531-14.531 14.531s-14.531-6.4688-14.531-14.531v-109.55c0-8.0625 6.4688-14.531 14.531-14.531s14.531 6.4688 14.531 14.531zm-14.531-340.69c20.625 0 37.453-16.781 37.453-37.453v-109.55c0-20.625-16.781-37.453-37.453-37.453-20.625 0-37.453 16.781-37.453 37.453v109.55c0.046875 20.625 16.828 37.453 37.453 37.453zm-14.484-147c0-8.0625 6.4688-14.531 14.531-14.531s14.531 6.4688 14.531 14.531v109.55c0 8.0625-6.4688 14.531-14.531 14.531s-14.531-6.4688-14.531-14.531z"/>
</svg>
