<svg width="143" height="115" viewBox="0 0 143 115" fill="none" xmlns="http://www.w3.org/2000/svg">
<path d="M40.725 76H39.325L36.847 65.99H38.177L40.081 74.194H40.109L42.349 65.99H43.749L45.989 74.194H46.017L47.921 65.99H49.251L46.773 76H45.373L43.063 67.418H43.035L40.725 76ZM53.7866 68.664C55.0886 68.664 56.1806 69.378 56.1806 71.016V76H55.0606V71.296C55.0606 70.372 54.6266 69.644 53.5066 69.644C52.2466 69.644 51.4066 70.442 51.4066 71.548V76H50.2866V65.99H51.4066V69.714H51.4346C51.8126 69.21 52.5686 68.664 53.7866 68.664ZM64.1495 72.164C64.1495 72.374 64.1495 72.612 64.1355 72.724H58.5495C58.5775 73.984 59.2775 75.244 60.8595 75.244C62.2595 75.244 62.7915 74.306 62.9175 73.802H64.0515C63.6875 75.132 62.6795 76.21 60.8455 76.21C58.5915 76.21 57.3735 74.586 57.3735 72.416C57.3735 70.134 58.7315 68.65 60.8455 68.65C62.9315 68.65 64.1495 70.078 64.1495 72.164ZM58.5495 71.744H62.9595C62.9595 70.568 62.1195 69.616 60.7895 69.616C59.5575 69.616 58.6195 70.498 58.5495 71.744ZM71.7784 72.164C71.7784 72.374 71.7784 72.612 71.7644 72.724H66.1784C66.2064 73.984 66.9064 75.244 68.4884 75.244C69.8884 75.244 70.4204 74.306 70.5464 73.802H71.6804C71.3164 75.132 70.3084 76.21 68.4744 76.21C66.2204 76.21 65.0024 74.586 65.0024 72.416C65.0024 70.134 66.3604 68.65 68.4744 68.65C70.5604 68.65 71.7784 70.078 71.7784 72.164ZM66.1784 71.744H70.5884C70.5884 70.568 69.7484 69.616 68.4184 69.616C67.1864 69.616 66.2484 70.498 66.1784 71.744ZM74.1293 76H73.0093V65.99H74.1293V76ZM76.9893 67.474H75.6453V66.13H76.9893V67.474ZM76.8773 76H75.7573V68.86H76.8773V76ZM84.9034 72.164C84.9034 72.374 84.9034 72.612 84.8894 72.724H79.3034C79.3314 73.984 80.0314 75.244 81.6134 75.244C83.0134 75.244 83.5454 74.306 83.6714 73.802H84.8054C84.4414 75.132 83.4334 76.21 81.5994 76.21C79.3454 76.21 78.1274 74.586 78.1274 72.416C78.1274 70.134 79.4854 68.65 81.5994 68.65C83.6854 68.65 84.9034 70.078 84.9034 72.164ZM79.3034 71.744H83.7134C83.7134 70.568 82.8734 69.616 81.5434 69.616C80.3114 69.616 79.3734 70.498 79.3034 71.744ZM92.5164 68.664C94.3084 68.664 95.7364 70.078 95.7364 72.43C95.7364 74.782 94.3084 76.196 92.5164 76.196C91.3684 76.196 90.6964 75.692 90.2764 75.076H90.2484V76H89.1284V65.99H90.2484V69.742H90.2764C90.6964 69.196 91.3684 68.664 92.5164 68.664ZM92.4044 75.216C93.8744 75.216 94.5604 73.83 94.5604 72.43C94.5604 71.03 93.8744 69.644 92.4044 69.644C91.0744 69.644 90.2484 70.75 90.2484 72.43C90.2484 74.11 91.0744 75.216 92.4044 75.216ZM98.2081 67.474H96.8641V66.13H98.2081V67.474ZM98.0961 76H96.9761V68.86H98.0961V76ZM103.224 68.664C104.526 68.664 105.618 69.378 105.618 71.016V76H104.498V71.296C104.498 70.372 104.064 69.644 102.944 69.644C101.684 69.644 100.844 70.442 100.844 71.548V76H99.7241V68.86H100.844V69.714H100.872C101.25 69.21 102.006 68.664 103.224 68.664Z" fill="black"/>
<g clip-path="url(#clip0_10008_2)">
<path d="M52 6.16992H90.66" stroke="black" stroke-width="1.75" stroke-miterlimit="10"/>
<path d="M85.88 6.16988L83.53 0.879883H59.14L56.78 6.16988" stroke="black" stroke-width="1.75" stroke-miterlimit="10"/>
<path d="M88.0602 6.16992L84.3002 50.7899H79.5002L75.6402 46.9299H66.1802" stroke="black" stroke-width="1.75" stroke-miterlimit="10"/>
<path d="M54.6001 6.16992L57.2901 38.1099" stroke="black" stroke-width="1.75" stroke-miterlimit="10"/>
<path d="M60.1901 50.6297C63.8352 50.6297 66.7901 47.6748 66.7901 44.0297C66.7901 40.3846 63.8352 37.4297 60.1901 37.4297C56.545 37.4297 53.5901 40.3846 53.5901 44.0297C53.5901 47.6748 56.545 50.6297 60.1901 50.6297Z" stroke="black" stroke-width="1.75" stroke-miterlimit="10"/>
<path d="M63.28 31.97V13.71H79.38V39.64H71.33" stroke="#9647FF" stroke-width="1.75" stroke-miterlimit="10"/>
</g>
<defs>
<clipPath id="clip0_10008_2">
<rect width="38.66" height="51.67" fill="white" transform="translate(52)"/>
</clipPath>
</defs>
</svg>
